<?xml version="1.0" encoding="UTF-8"?>
<!-- Created with Inkscape (http://www.inkscape.org/) -->
<svg width="32" height="32" version="1.1" viewBox="0 0 32 32" xmlns="http://www.w3.org/2000/svg">
 <g fill="none" stroke-dashoffset=".5" stroke-width="2">
  <path d="m8 12v8" stroke="#717171" stroke-dasharray="2,4" stroke-dashoffset="0" stroke-linecap="round" style="paint-order:fill markers stroke"/>
  <path d="m12 8h8" stroke="#717171" stroke-dasharray="2,4" stroke-dashoffset="0" stroke-linecap="round" stroke-linejoin="round" style="paint-order:fill markers stroke"/>
  <g stroke="#fff" stroke-linecap="square">
   <path d="m8 12 4-4-4-4-4 4z" style="paint-order:fill markers stroke"/>
   <path d="m20 8 4-4 4 4-4 4z" style="paint-order:fill markers stroke"/>
   <path d="m4 24 4-4 4 4-4 4z" style="paint-order:fill markers stroke"/>
  </g>
 </g>
 <path d="m20 28c4 0 4-2 8-2v-2h-8v4z" fill="#fff" fill-rule="evenodd" style="paint-order:fill markers stroke"/>
 <path d="m20 23h8v-2s0-2-2-2h-1v-3s0-1-1-1-1 1-1 1v3h-1s-2 0-2 2z" fill="#fff" fill-rule="evenodd" style="paint-order:fill markers stroke"/>
</svg>
