<?xml version="1.0" encoding="UTF-8" standalone="no"?>
<svg
   height="128"
   width="128"
   version="1.1"
   id="svg7"
   sodipodi:docname="icon.svg"
   xml:space="preserve"
   inkscape:version="1.4 (86a8ad7, 2024-10-11)"
   xmlns:inkscape="http://www.inkscape.org/namespaces/inkscape"
   xmlns:sodipodi="http://sodipodi.sourceforge.net/DTD/sodipodi-0.dtd"
   xmlns="http://www.w3.org/2000/svg"
   xmlns:svg="http://www.w3.org/2000/svg"><defs
     id="defs7" /><sodipodi:namedview
     id="namedview7"
     pagecolor="#505050"
     bordercolor="#ffffff"
     borderopacity="1"
     inkscape:showpageshadow="0"
     inkscape:pageopacity="0"
     inkscape:pagecheckerboard="1"
     inkscape:deskcolor="#505050"
     inkscape:zoom="3.3398438"
     inkscape:cx="-10.030409"
     inkscape:cy="71.410526"
     inkscape:window-width="1920"
     inkscape:window-height="1057"
     inkscape:window-x="1912"
     inkscape:window-y="-8"
     inkscape:window-maximized="1"
     inkscape:current-layer="svg7" /><rect
     x="2"
     y="2"
     width="124"
     height="124"
     rx="14"
     fill="#363d52"
     stroke="#212532"
     stroke-width="4"
     id="rect1"
     style="display:none" /><g
     transform="matrix(0.08643015,0,0,0.08643015,-2.3839605,26.257825)"
     id="g7"><g
       fill="#ffffff"
       id="g4"><path
         d="m 105,673 v 33 q 407,354 814,0 v -33 z"
         id="path1" /><path
         fill="#478cbf"
         d="m 105,673 152,14 q 12,1 15,14 l 4,67 132,10 8,-61 q 2,-11 15,-15 h 162 q 13,4 15,15 l 8,61 132,-10 4,-67 q 3,-13 15,-14 L 919,673 V 427 q 30,-39 56,-81 -35,-59 -83,-108 -43,20 -82,47 -40,-37 -88,-64 7,-51 8,-102 -59,-28 -123,-42 -26,43 -46,89 -49,-7 -98,0 -20,-46 -46,-89 -64,14 -123,42 1,51 8,102 -48,27 -88,64 -39,-27 -82,-47 -48,49 -83,108 26,42 56,81 z m 0,33 v 39 c 0,276 813,276 813,0 v -39 l -134,12 -5,69 q -2,10 -14,13 l -162,11 q -12,0 -16,-11 L 577,735 H 447 l -10,65 q -4,11 -16,11 L 259,800 q -12,-3 -14,-13 l -5,-69 z"
         id="path2" /><path
         d="m 483,600 c 3,34 55,34 58,0 v -86 c -3,-34 -55,-34 -58,0 z"
         id="path3" /><circle
         cx="725"
         cy="526"
         r="90"
         id="circle3" /><circle
         cx="299"
         cy="526"
         r="90"
         id="circle4" /></g><g
       fill="#414042"
       id="g6"><circle
         cx="307"
         cy="532"
         r="60"
         id="circle5" /><circle
         cx="717"
         cy="532"
         r="60"
         id="circle6" /></g></g><g
     id="g8"
     transform="matrix(0.64658204,0,0,0.64658204,-328.90869,-51.443028)"><path
       id="corner"
       d="m 685.03699,97.695689 c -4.77013,-1.956231 -9.17826,-2.185228 -14.53631,-2.117667 l -90.80556,0.498145 c -18.73861,-0.952665 -37.21029,3.636476 -53.17648,12.827923 l 0.0165,0.0189 c -2.85572,1.55652 -4.79904,4.59097 -4.79904,8.07085 0,5.07193 4.11596,9.18489 9.1846,9.18489 2.64567,0 5.02069,-1.12467 6.69816,-2.91264 19.96469,-10.70037 44.36613,-12.75805 66.90313,-3.50267 40.0305,16.43199 59.22924,62.37363 42.79346,102.40112 -4.40819,10.7345 -10.95419,19.95442 -18.92558,27.41161 l 0.07,0.0986 c -2.72799,1.59145 -4.57,4.5453 -4.57,7.93413 0,5.07172 4.1187,9.18152 9.1912,9.18152 3.26135,0 6.12581,-1.71168 7.75544,-4.28771 9.7123,-9.13103 17.67458,-20.4184 23.06112,-33.53544 0.37128,-0.89571 37.57558,-91.51713 37.67071,-91.75905 6.35188,-15.46641 -1.0642,-33.1635 -16.5314,-39.512543 z"
       style="fill:#478cbf;stroke-width:0.855744;fill-opacity:1" /></g></svg>
