{"accessors":[{"bufferView":0,"componentType":5126,"count":1202,"max":[0.07000000774860382,1.3100003004074097,0.2900000810623169],"min":[-0.07000000774860382,-0.5269374847412109,-0.0885416716337204],"normalized":false,"type":"VEC3"},{"bufferView":1,"componentType":5126,"count":1202,"max":[1.0,1.0,0.999994158744812,1.0],"min":[-1.0,-1.0,-0.999994158744812,1.0],"normalized":false,"type":"VEC4"},{"bufferView":2,"componentType":5126,"count":1202,"max":[0.9999945759773254,1.0,1.0],"min":[-0.9999945759773254,-0.9945061206817627,-1.0],"normalized":false,"type":"VEC3"},{"bufferView":3,"componentType":5126,"count":1202,"max":[0.7886348962783813,0.9882509112358093],"min":[0.011749104596674442,0.011749029159545898],"normalized":false,"type":"VEC2"},{"bufferView":4,"componentType":5123,"count":4452,"max":[1201],"min":[0],"normalized":false,"type":"SCALAR"}],"asset":{"generator":"Godot Engine v4.6.2.stable.official@71f334935c000924d403448e698df4441130df18","version":"2.0"},"bufferViews":[{"buffer":0,"byteLength":14424,"byteStride":12,"target":34962},{"buffer":0,"byteLength":19232,"byteOffset":14424,"byteStride":16,"target":34962},{"buffer":0,"byteLength":14424,"byteOffset":33656,"byteStride":12,"target":34962},{"buffer":0,"byteLength":9616,"byteOffset":48080,"byteStride":8,"target":34962},{"buffer":0,"byteLength":8904,"byteOffset":57696,"target":34963}],"buffers":[{"byteLength":66600,"uri":"crowbar_prop0.bin"}],"extensions":{"OMI_physics_shape":{"shapes":[{"box":{"size":[0.154541015625,1.8592529296875,0.1517333984375]},"type":"box"}]}},"extensionsUsed":["GODOT_single_root","OMI_physics_body","OMI_physics_shape"],"images":[{"uri":"textures%2F.png"},{"name":"crowbar_orm","uri":"textures%2Fcrowbar_orm.png"}],"materials":[{"doubleSided":true,"name":"crowbar","pbrMetallicRoughness":{"baseColorFactor":[1.0,1.0,1.0,1.0],"baseColorTexture":{"index":0},"metallicFactor":1.0,"metallicRoughnessTexture":{"index":1},"roughnessFactor":1.0}}],"meshes":[{"name":"crowbar_Mesh","primitives":[{"attributes":{"NORMAL":2,"POSITION":0,"TANGENT":1,"TEXCOORD_0":3},"indices":4,"material":0,"mode":4}]}],"nodes":[{"children":[1,2],"extensions":{"OMI_physics_body":{"motion":{"inertiaDiagonal":[0.5,1.0,0.5],"mass":1.2999999523162842,"type":"dynamic"}}},"name":"CrowbarProp"},{"mesh":0,"name":"mesh","translation":[0.0,-0.4963040351867676,0.0]},{"extensions":{"OMI_physics_body":{"collider":{"shape":0}}},"name":"col","translation":[0.0,-0.10162353515625,-0.01251220703125]}],"samplers":[{"magFilter":9729,"minFilter":9987,"wrapS":10497,"wrapT":10497}],"scene":0,"scenes":[{"nodes":[0]}],"textures":[{"sampler":0,"source":0},{"sampler":0,"source":1}]}